<?xml version="1.0" encoding="utf-8"?>
<!--Designed by Vexels.com - 2017 All Rights Reserved - https://vexels.com/terms-and-conditions/-->
<!DOCTYPE svg PUBLIC "-//W3C//DTD SVG 1.1//EN" "http://www.w3.org/Graphics/SVG/1.1/DTD/svg11.dtd">
<svg version="1.1" id="Capa_1" xmlns="http://www.w3.org/2000/svg" xmlns:xlink="http://www.w3.org/1999/xlink" x="0px" y="0px"
	 width="1200px" height="1200px" viewBox="0 0 1200 1200" enable-background="new 0 0 1200 1200" xml:space="preserve">
<g>
	
		<radialGradient id="SVGID_1_" cx="600" cy="1999.3203" r="470.6508" gradientTransform="matrix(1 0 0 0.3708 0 234.1318)" gradientUnits="userSpaceOnUse">
		<stop  offset="0" style="stop-color:#AAFD81"/>
		<stop  offset="0.1249" style="stop-color:#A6F77E"/>
		<stop  offset="0.2844" style="stop-color:#99E877"/>
		<stop  offset="0.4627" style="stop-color:#85CD6A"/>
		<stop  offset="0.6546" style="stop-color:#69A959"/>
		<stop  offset="0.8555" style="stop-color:#457B43"/>
		<stop  offset="0.9122" style="stop-color:#3A6C3C"/>
	</radialGradient>
	<path opacity="0.1" fill="url(#SVGID_1_)" d="M1070.644,975.48c0,96.381-210.71,174.52-470.644,174.52
		c-259.936,0-470.644-78.139-470.644-174.52c0-96.382,210.708-174.521,470.644-174.521
		C859.934,800.96,1070.644,879.099,1070.644,975.48z"/>
	<radialGradient id="SVGID_2_" cx="599.999" cy="517.2988" r="467.2993" gradientUnits="userSpaceOnUse">
		<stop  offset="0" style="stop-color:#AAFD81"/>
		<stop  offset="0.1249" style="stop-color:#A6F77E"/>
		<stop  offset="0.2844" style="stop-color:#99E877"/>
		<stop  offset="0.4627" style="stop-color:#85CD6A"/>
		<stop  offset="0.6546" style="stop-color:#69A959"/>
		<stop  offset="0.8555" style="stop-color:#457B43"/>
		<stop  offset="0.9122" style="stop-color:#3A6C3C"/>
	</radialGradient>
	<path fill="url(#SVGID_2_)" d="M1067.299,517.307c0,258.076-209.215,467.291-467.299,467.291
		c-258.085,0-467.301-209.215-467.301-467.291C132.699,259.215,341.915,50,600,50C858.084,50,1067.299,259.215,1067.299,517.307z"/>
	<path opacity="0.3" fill="#FFFFFF" d="M568.489,931.37c-4.252-0.653-8.828-1.35-13.731-2.104
		c-9.786-1.494-20.826-2.901-32.606-6.122c-5.913-1.414-12.07-2.888-18.446-4.41c-6.232-2.031-12.674-4.12-19.288-6.282
		c-13.397-3.822-26.665-10.3-40.681-15.979c-6.848-3.243-13.601-6.986-20.542-10.526c-3.438-1.827-6.965-3.524-10.381-5.476
		c-3.344-2.097-6.695-4.193-10.067-6.304c-6.652-4.367-13.726-8.125-20.114-13.035c-6.45-4.781-12.928-9.582-19.404-14.384
		c-6.348-4.947-12.237-10.505-18.346-15.69c-6.209-5.078-11.839-10.758-17.329-16.488c-11.468-10.945-21.284-23.11-30.959-34.645
		c-4.782-5.817-8.807-12.085-13.123-17.902c-4.257-5.861-8.407-11.591-11.795-17.627c-3.568-5.904-7.043-11.635-10.402-17.191
		c-3.322-5.557-5.831-11.345-8.617-16.654c-2.669-5.396-5.382-10.468-7.659-15.437c-0.639-1.567-1.19-2.931-1.807-4.439
		c-14.08-8.85-27.318-18.925-39.534-30.133c0.667,1.785,1.371,3.656,2.154,5.724c1.364,3.475,2.656,7.392,4.47,11.498
		c1.9,4.062,3.959,8.457,6.158,13.158c2.205,4.679,4.548,9.662,7.021,14.914c2.691,5.135,5.824,10.373,8.937,15.922
		c3.235,5.462,6.216,11.388,10.018,17.082c3.829,5.65,7.797,11.498,11.867,17.512c3.896,6.129,8.561,11.939,13.347,17.844
		c4.832,5.869,9.386,12.164,14.696,17.99c10.736,11.54,21.616,23.625,34.114,34.383c6.014,5.636,12.151,11.199,18.861,16.146
		c6.608,5.042,12.976,10.432,19.804,15.197c6.926,4.592,13.861,9.19,20.766,13.76c6.827,4.687,14.327,8.197,21.371,12.303
		c3.562,1.973,7.108,3.946,10.648,5.905c3.598,1.813,7.312,3.372,10.924,5.049c7.298,3.249,14.385,6.688,21.536,9.625
		c14.633,5.063,28.407,10.889,42.227,14.059c6.817,1.827,13.447,3.598,19.86,5.317c6.527,1.204,12.825,2.357,18.874,3.467
		c12.02,2.611,23.3,3.453,33.222,4.425c4.947,0.493,9.591,0.942,13.877,1.371c4.294,0.065,8.248,0.123,11.811,0.182
		c14.261,0.217,22.407,0.333,22.407,0.333s-8.14-0.551-22.364-1.53C576.707,931.936,572.77,931.66,568.489,931.37z"/>
	<linearGradient id="SVGID_3_" gradientUnits="userSpaceOnUse" x1="599.9985" y1="29.46" x2="599.9985" y2="241.5759">
		<stop  offset="0" style="stop-color:#FFFFFF;stop-opacity:0.8"/>
		<stop  offset="0.9122" style="stop-color:#FFFFFF;stop-opacity:0.1"/>
	</linearGradient>
	<path fill="url(#SVGID_3_)" d="M826.711,204.971c0,62.615-101.511,113.363-226.711,113.363
		c-125.202,0-226.713-50.748-226.713-113.363c0-62.601,101.511-113.348,226.713-113.348
		C725.2,91.623,826.711,142.37,826.711,204.971z"/>
	
		<radialGradient id="SVGID_4_" cx="542.9653" cy="642.2012" r="746.605" gradientTransform="matrix(0.9496 0.0636 -0.0418 0.6886 48.563 165.4469)" gradientUnits="userSpaceOnUse">
		<stop  offset="0.0049" style="stop-color:#FFFFFF;stop-opacity:0.2"/>
		<stop  offset="0.9122" style="stop-color:#FFFFFF;stop-opacity:0"/>
	</radialGradient>
	<path fill="url(#SVGID_4_)" d="M1016.224,478.106C995.086,242.125,816.787,57.878,599.941,57.878
		c-231.063,0-418.387,209.215-418.387,467.299c0,0.37,0.029,0.732,0.029,1.103c59.539,68.557,168.383,146.999,352.332,139.056
		C836.881,652.25,889.471,454.212,1016.224,478.106z"/>
	
		<linearGradient id="SVGID_5_" gradientUnits="userSpaceOnUse" x1="825.9316" y1="943.1455" x2="728.7679" y2="727.9969" gradientTransform="matrix(0.9991 -0.0421 0.0421 0.9991 -11.8857 18.1465)">
		<stop  offset="0.0049" style="stop-color:#FFFFFF;stop-opacity:0.4"/>
		<stop  offset="0.9122" style="stop-color:#FFFFFF;stop-opacity:0"/>
	</linearGradient>
	<path fill="url(#SVGID_5_)" d="M834.994,842.531c97.115-59.546,178.808-196.614,150.241-226.283
		c-55.694-57.856-433.627,94.648-462.575,176.921C493.701,875.421,616.052,976.778,834.994,842.531z"/>
	<radialGradient id="SVGID_6_" cx="324.625" cy="283.54" r="63.255" gradientUnits="userSpaceOnUse">
		<stop  offset="0.0049" style="stop-color:#FFFFFF;stop-opacity:0.2"/>
		<stop  offset="0.9122" style="stop-color:#FFFFFF;stop-opacity:0"/>
	</radialGradient>
	<path fill="url(#SVGID_6_)" d="M351.838,283.544c0,15.023-12.187,27.209-27.21,27.209c-15.028,0-27.216-12.186-27.216-27.209
		c0-15.03,12.188-27.216,27.216-27.216C339.651,256.328,351.838,268.514,351.838,283.544z"/>
</g>
</svg>
